<?xml version="1.0" standalone="no"?>
<!DOCTYPE svg PUBLIC "-//W3C//DTD SVG 20010904//EN"
 "http://www.w3.org/TR/2001/REC-SVG-20010904/DTD/svg10.dtd">
<svg version="1.0" xmlns="http://www.w3.org/2000/svg"
 width="300.000000pt" height="179.000000pt" viewBox="0 0 300.000000 179.000000"
 preserveAspectRatio="xMidYMid meet">
<metadata>
Created by potrace 1.10, written by Peter Selinger 2001-2011
</metadata>
<g transform="translate(0.000000,179.000000) scale(0.100000,-0.100000)"
fill="#000000" stroke="none">
<path d="M557 1496 c-95 -35 -171 -118 -218 -239 -37 -96 -49 -201 -49 -424
l0 -183 40 0 40 0 0 213 c0 283 22 381 105 483 43 52 126 94 187 94 151 -1
259 -150 213 -292 -19 -60 -42 -89 -100 -127 -34 -21 -51 -26 -112 -26 -65 0
-76 3 -118 33 l-46 32 3 -52 3 -52 48 -18 c149 -55 305 4 375 142 31 60 33 71
30 145 -2 53 -10 94 -23 120 -25 51 -89 115 -140 140 -51 25 -184 31 -238 11z
m190 -26 c41 -14 97 -51 126 -84 60 -69 77 -191 39 -277 -57 -129 -213 -199
-332 -148 -53 23 -58 49 -4 28 44 -17 156 -14 192 5 41 21 96 76 115 116 75
149 -37 338 -204 345 -93 4 -168 -33 -228 -110 -17 -22 -36 -47 -43 -55 -7 -8
-12 -15 -10 -15 2 0 -2 -13 -8 -30 -27 -68 -39 -185 -40 -367 0 -160 -2 -188
-15 -188 -18 0 -19 11 -2 29 6 8 8 11 2 8 -12 -6 -12 326 -1 413 22 162 146
320 266 338 13 2 27 5 29 8 7 7 75 -3 118 -16z"/>
<path d="M313 1486 c3 -8 11 -34 17 -58 17 -62 19 -63 53 -19 18 22 47 52 66
66 l35 25 -88 0 c-73 0 -87 -3 -83 -14z"/>
<path d="M291 1366 c-1 -71 1 -127 3 -125 11 11 45 113 40 121 -3 5 -14 37
-24 71 l-18 62 -1 -129z"/>
<path d="M611 1410 c-91 -22 -166 -117 -201 -255 -17 -68 -20 -113 -20 -292
l0 -213 40 0 40 0 0 223 c0 244 8 296 57 376 42 67 86 94 146 88 38 -3 56 -11
80 -36 28 -28 32 -38 32 -86 0 -48 -4 -58 -32 -86 -24 -25 -42 -33 -80 -36
-45 -5 -53 -2 -86 27 -21 18 -37 41 -37 51 0 37 -18 18 -30 -32 -12 -47 -11
-52 11 -75 13 -14 47 -32 77 -40 188 -55 333 156 216 313 -47 62 -135 93 -213
73z m111 -24 c51 -22 92 -65 113 -118 16 -42 16 -53 4 -95 -26 -94 -131 -159
-218 -134 -40 12 -71 38 -71 60 0 9 3 12 8 6 15 -22 64 -38 111 -38 79 0 138
54 146 134 13 130 -132 210 -245 135 -43 -29 -96 -115 -111 -181 -7 -28 -14
-142 -16 -255 -2 -112 -6 -207 -9 -209 -14 -15 -19 31 -19 192 -1 209 11 283
58 377 54 110 160 163 249 126z"/>
<path d="M1190 811 l0 -161 41 0 40 0 -3 41 -3 41 60 2 c95 3 125 34 125 126
0 37 -6 56 -24 77 -23 27 -28 28 -130 31 l-106 4 0 -161z m90 122 c0 -5 -8
-13 -19 -20 -21 -13 -32 -67 -21 -99 9 -24 63 -50 81 -38 8 4 10 3 5 -4 -4 -7
-17 -12 -28 -12 -26 0 -58 -27 -58 -49 0 -14 -2 -14 -10 -1 -5 8 -10 62 -10
120 l0 106 30 2 c17 1 30 -1 30 -5z m110 -8 c30 -15 33 -25 32 -90 -1 -34 -33
-65 -66 -65 -19 1 -19 2 7 18 48 30 52 79 9 125 -29 31 -24 34 18 12z m-22
-37 c13 -13 16 -47 4 -65 -4 -6 -30 -13 -57 -14 l-50 -3 -1 47 -1 47 46 0 c26
0 52 -5 59 -12z"/>
<path d="M1953 955 c-17 -7 -36 -22 -41 -32 -6 -10 -12 -76 -14 -146 l-3 -127
38 0 37 0 0 75 0 75 30 0 c27 0 30 3 30 33 0 32 -2 33 -30 29 -25 -4 -30 -1
-30 16 0 21 18 32 51 32 14 0 19 7 19 30 0 26 -4 30 -27 30 -16 -1 -42 -7 -60
-15z m0 -53 c-9 -6 -7 -16 8 -41 l19 -32 -22 -29 c-13 -16 -26 -29 -29 -29
-10 -1 -8 102 2 122 6 9 15 17 22 17 9 0 9 -2 0 -8z"/>
<path d="M990 826 c0 -58 4 -116 9 -129 10 -26 55 -47 102 -47 27 0 29 3 29
36 0 30 -3 36 -19 31 -34 -9 -51 11 -51 60 0 45 0 45 30 40 29 -6 30 -5 30 28
0 32 -2 35 -30 35 -25 0 -30 4 -30 25 0 22 -4 25 -35 25 l-35 0 0 -104z m64
38 c14 -14 14 -18 -6 -44 -24 -32 -20 -80 9 -112 15 -16 15 -18 0 -18 -26 0
-37 34 -37 114 0 77 6 88 34 60z"/>
<path d="M2550 820 c0 -60 3 -116 6 -125 9 -23 57 -45 99 -45 35 0 36 1 33 33
-2 25 -8 32 -24 33 -36 2 -44 13 -44 61 0 45 0 45 30 40 29 -6 30 -5 30 28 0
32 -2 35 -30 35 -25 0 -30 4 -30 24 0 21 -5 24 -35 24 l-35 0 0 -108z m64 45
c19 -15 19 -15 -4 -40 -19 -20 -22 -31 -17 -67 3 -23 11 -44 16 -46 6 -2 8 -8
5 -13 -3 -6 -11 -5 -20 2 -10 8 -14 35 -14 95 0 46 3 84 8 84 4 0 16 -7 26
-15z"/>
<path d="M575 883 c-26 -6 -65 -42 -65 -60 0 -16 61 -18 77 -2 16 16 57 7 61
-13 3 -15 -4 -18 -46 -18 -61 0 -102 -28 -102 -70 0 -65 84 -103 140 -62 23
18 29 19 34 7 3 -9 19 -15 39 -15 32 0 33 2 29 30 -2 17 -8 30 -13 30 -5 0 -9
22 -9 49 0 70 -14 99 -55 116 -35 15 -54 17 -90 8z m123 -143 c5 -30 9 -56 8
-58 -10 -9 -36 14 -36 32 0 12 -5 27 -10 32 -8 8 -7 19 1 38 16 34 24 24 37
-44z m-144 -30 c6 -32 5 -33 -10 -18 -10 10 -14 23 -9 38 8 26 10 24 19 -20z
m94 18 c-4 -29 -64 -39 -75 -13 -7 21 12 35 50 35 24 0 28 -4 25 -22z"/>
<path d="M804 876 c-33 -15 -44 -33 -44 -72 0 -29 28 -49 93 -65 27 -6 46 -16
44 -23 -5 -16 -36 -20 -61 -8 -37 18 -76 21 -76 5 0 -46 53 -77 118 -69 55 6
80 21 88 52 13 53 -14 77 -108 98 -39 9 -37 36 2 36 17 0 30 -4 30 -10 0 -5
18 -10 39 -10 34 0 38 3 34 19 -13 50 -98 75 -159 47z m18 -39 c-12 -14 -11
-33 2 -57 4 -8 -2 -4 -13 8 -16 19 -18 28 -11 43 6 10 16 19 22 19 7 0 7 -4 0
-13z"/>
<path d="M1523 874 c-51 -26 -71 -121 -38 -184 28 -54 132 -65 181 -19 34 32
31 49 -10 49 -19 0 -38 -4 -41 -10 -9 -14 -48 -13 -63 2 -26 26 -12 34 66 35
l77 0 -3 44 c-4 58 -33 87 -92 94 -31 4 -55 1 -77 -11z m5 -61 c2 -77 -1 -113
-10 -113 -19 0 -26 87 -9 118 15 29 18 28 19 -5z m92 2 c17 -21 9 -27 -40 -29
-41 -2 -51 9 -28 32 17 17 53 15 68 -3z"/>
<path d="M2105 877 c-39 -18 -55 -54 -55 -123 0 -65 26 -99 83 -109 59 -11
137 27 137 67 0 12 -49 10 -86 -4 -26 -9 -36 -9 -48 1 -34 28 -18 38 59 37
l75 -1 0 42 c0 58 -31 92 -90 98 -27 3 -57 0 -75 -8z m2 -83 c1 -26 -2 -55 -7
-65 -8 -13 -6 -20 7 -28 10 -6 13 -11 7 -11 -34 -1 -53 87 -28 125 9 14 17 25
18 25 0 0 2 -21 3 -46z m80 28 c28 -18 18 -34 -25 -36 -42 -1 -53 9 -30 32 14
14 37 15 55 4z"/>
<path d="M2352 875 c-41 -18 -55 -54 -50 -129 5 -67 25 -91 84 -102 45 -8 80
2 110 31 36 36 32 62 -10 67 -27 3 -36 0 -40 -15 -3 -14 -12 -18 -38 -15 -33
3 -33 4 -33 53 0 49 0 50 33 53 27 3 35 -1 39 -17 8 -30 73 -30 73 0 0 33 -19
60 -55 75 -43 17 -71 17 -113 -1z m4 -57 c-20 -28 -21 -78 -1 -104 16 -22 19
-34 7 -34 -31 0 -43 121 -15 152 22 25 29 15 9 -14z"/>
<path d="M1769 865 c-34 -18 -36 -26 -45 -129 l-7 -86 41 0 41 0 3 78 3 77 33
3 c29 3 32 6 32 38 0 33 -1 34 -37 34 -21 -1 -50 -7 -64 -15z m26 -49 c-10
-14 -20 -26 -24 -26 -3 0 -4 -21 -2 -46 2 -32 0 -44 -8 -40 -6 4 -9 29 -7 58
2 39 8 56 26 70 29 24 36 17 15 -16z"/>
</g>
</svg>
